<svg id="Capa_1" xmlns="http://www.w3.org/2000/svg" viewBox="0 0 500 500"><style>.st0{fill:#fff}.st1{fill:#cd2027}</style><ellipse class="st0" cx="251.3" cy="249.7" rx="182.6" ry="188.3"/><path class="st1" d="M224.7 239.6c-5.5 0-10.4.9-14.5 2.6-4.1 1.7-7.6 4.7-10.3 8.8-2.7 4.2-4.7 9.7-6 16.8-1.3 7-2 15.8-2 26.3 0 10.1.7 18.7 2 25.6 1.3 6.9 3.7 12.6 7 17 3.4 4.4 8 7.5 13.8 9.5 5.8 1.9 13.2 2.9 22.2 2.9V240.4c-2.3-.3-4.4-.5-6.3-.6-1.8-.2-3.8-.2-5.9-.2z"/><path class="st1" d="M249.6 2.9C113.2 2.9 2.7 113.4 2.7 249.8s110.5 246.9 246.9 246.9 246.9-110.6 246.9-246.9S386 2.9 249.6 2.9zm97.8 147.5c-3.1-.6-6.5-.9-10.4-.9-8.2 0-15.4 1.6-21.5 4.7-6.2 3.1-11.3 7.5-15.5 13.2-4.2 5.7-7.3 12.6-9.4 20.8-2.1 8.2-3.1 17.4-3.1 27.5v178.2h-50.2v-.4c-11-.6-21.2-1.7-30.5-3.4-13.6-2.6-25.1-7.5-34.5-14.8-9.4-7.3-16.7-17.4-21.7-30.4s-7.5-29.9-7.5-50.7c0-16.7 1.4-30.8 4.1-42.5 2.7-11.7 7.1-21.2 13.1-28.7 6-7.4 13.8-12.8 23.4-16.1 9.6-3.3 21.1-5 34.7-5 3 0 6 0 8.9.1 2.9.1 6.3.3 10.2.7-.5-7.9-1.9-15.1-3.9-21.8-2.1-6.6-5-12.3-8.7-17.1-3.7-4.8-8.3-8.5-13.6-11.1-5.3-2.6-11.4-3.9-18.3-3.9-5.8 0-10.8.5-15 1.5-4.2 1-8.3 2.2-12.3 3.7l2.9-46.4c3.9-.7 8.3-1.1 13.3-1.3 5-.2 9.4-.3 13.1-.3 15.8 0 29.5 2.8 41 8.4 11 5.3 20.1 12.8 27.5 22.2 8.3-9.8 18.5-17.4 30.7-22.6 12.4-5.3 26.5-8 42.5-8 3.2 0 6.4.2 9.7.5 3.3.3 6 .7 8.2 1.1l1.7 45.6c-3-1.3-5.9-2.2-8.9-2.8z"/></svg>